<svg width="50" height="50" viewBox="0 0 50 50" fill="none" xmlns="http://www.w3.org/2000/svg">
<path d="M24.9947 4.68286C21.3754 4.68286 17.9042 6.12065 15.3449 8.67994C12.7857 11.2392 11.3479 14.7104 11.3479 18.3297C11.3479 29.0099 21.7666 41.862 24.4968 45.0193C24.6434 45.1873 24.8505 45.2904 25.0728 45.306C25.2952 45.3216 25.5147 45.2485 25.6833 45.1027L25.7666 45.0193C28.4604 41.8495 38.6406 29.0099 38.6406 18.3287C38.6403 14.7097 37.2025 11.239 34.6435 8.67994C32.0845 6.12091 28.6138 4.68314 24.9947 4.68286Z" fill="#EF5E30"/>
<path d="M25.0124 28.5496C30.6707 28.5496 35.2577 23.9486 35.2577 18.273C35.2577 12.5973 30.6707 7.99634 25.0124 7.99634C19.3541 7.99634 14.7671 12.5973 14.7671 18.273C14.7671 23.9486 19.3541 28.5496 25.0124 28.5496Z" stroke="white" stroke-linecap="round" stroke-linejoin="round"/>
<path d="M29.7894 23.6094V11.3906H20.4883C20.3842 11.3906 20.2811 11.4111 20.1849 11.451C20.0888 11.4908 20.0014 11.5492 19.9278 11.6228C19.8542 11.6964 19.7958 11.7838 19.756 11.8799C19.7162 11.9761 19.6956 12.0792 19.6956 12.1833V23.6094" stroke="white" stroke-width="0.6" stroke-linecap="round" stroke-linejoin="round"/>
<path d="M21.2894 22.4042V11.3906" stroke="white" stroke-width="0.6" stroke-linecap="round" stroke-linejoin="round"/>
<path d="M20.7581 22.5469H29.7894V24.6719H20.7581C20.4764 24.6719 20.2061 24.5599 20.0068 24.3607C19.8076 24.1614 19.6956 23.8912 19.6956 23.6094C19.6956 23.3276 19.8076 23.0573 20.0068 22.8581C20.2061 22.6588 20.4764 22.5469 20.7581 22.5469Z" stroke="white" stroke-width="0.6" stroke-linecap="round" stroke-linejoin="round"/>
<path d="M24.2113 23.6094H19.7676" stroke="white" stroke-width="0.6" stroke-linecap="round" stroke-linejoin="round"/>
<path d="M24.7521 16.5911C24.4478 16.0838 24.3194 15.4903 24.3866 14.9026C24.4539 14.3149 24.713 13.7658 25.124 13.3403C24.7275 13.4537 24.3625 13.6567 24.0571 13.9337C23.7516 14.2107 23.514 14.5542 23.3626 14.9377C23.2112 15.3213 23.1501 15.7345 23.1839 16.1454C23.2177 16.5563 23.3456 16.954 23.5577 17.3076C23.7698 17.6611 24.0603 17.9612 24.4069 18.1845C24.7535 18.4079 25.1469 18.5485 25.5565 18.5955C25.9661 18.6425 26.3811 18.5946 26.7692 18.4556C27.1574 18.3166 27.5084 18.0902 27.7951 17.7938C27.2262 17.956 26.6197 17.9261 26.0696 17.7086C25.5194 17.4912 25.0563 17.0984 24.7521 16.5911Z" stroke="white" stroke-width="0.6" stroke-linecap="round" stroke-linejoin="round"/>
<path d="M26.1009 13.3698L26.5756 13.6118C26.5869 13.6175 26.5998 13.6195 26.6123 13.6175C26.6249 13.6155 26.6365 13.6096 26.6455 13.6006L27.0221 13.2234C27.0311 13.2143 27.0429 13.2083 27.0555 13.2063C27.0682 13.2043 27.0812 13.2064 27.0926 13.2124C27.104 13.2183 27.1132 13.2278 27.1188 13.2393C27.1244 13.2509 27.1262 13.2639 27.1239 13.2765L27.0404 13.8027C27.0384 13.8153 27.0404 13.8282 27.0462 13.8395C27.052 13.8508 27.0612 13.86 27.0726 13.8657L27.5473 14.1077C27.5585 14.1135 27.5676 14.1226 27.5733 14.1339C27.579 14.1452 27.5811 14.1579 27.5791 14.1704C27.5771 14.1829 27.5713 14.1944 27.5623 14.2034C27.5534 14.2123 27.5419 14.2183 27.5295 14.2203L27.0033 14.3037C26.9907 14.3056 26.9791 14.3115 26.9701 14.3205C26.9611 14.3295 26.9553 14.3411 26.9533 14.3536L26.8699 14.8798C26.868 14.8924 26.8621 14.904 26.8531 14.913C26.8441 14.922 26.8325 14.9279 26.82 14.9299C26.8074 14.9318 26.7945 14.9298 26.7832 14.924C26.7719 14.9182 26.7628 14.909 26.757 14.8976L26.5153 14.423C26.5095 14.4117 26.5003 14.4025 26.489 14.3968C26.4777 14.391 26.4649 14.3889 26.4524 14.3908L25.9261 14.4742C25.9135 14.4766 25.9005 14.4748 25.8889 14.4692C25.8774 14.4636 25.8679 14.4544 25.862 14.443C25.8561 14.4316 25.8539 14.4186 25.8559 14.4059C25.8579 14.3932 25.8639 14.3815 25.873 14.3725L26.2497 13.9958C26.2586 13.9868 26.2645 13.9753 26.2665 13.9627C26.2685 13.9502 26.2665 13.9373 26.2608 13.926L26.0189 13.4513C26.0124 13.4399 26.0099 13.4266 26.0117 13.4136C26.0135 13.4006 26.0196 13.3886 26.0289 13.3793C26.0382 13.3701 26.0503 13.3641 26.0633 13.3624C26.0763 13.3607 26.0895 13.3633 26.1009 13.3698Z" fill="white"/>
</svg>
