<svg width="50" height="50" viewBox="0 0 50 50" fill="none" xmlns="http://www.w3.org/2000/svg">
<path d="M24.9947 4.68286C21.3754 4.68286 17.9042 6.12065 15.3449 8.67994C12.7857 11.2392 11.3479 14.7104 11.3479 18.3297C11.3479 29.0099 21.7666 41.862 24.4968 45.0193C24.6434 45.1873 24.8505 45.2904 25.0728 45.306C25.2952 45.3216 25.5147 45.2485 25.6833 45.1027L25.7666 45.0193C28.4604 41.8495 38.6406 29.0099 38.6406 18.3287C38.6403 14.7097 37.2025 11.239 34.6435 8.67994C32.0845 6.12091 28.6138 4.68314 24.9947 4.68286Z" fill="#16A75C"/>
<path d="M25.0124 28.5496C30.6707 28.5496 35.2577 23.9486 35.2577 18.273C35.2577 12.5973 30.6707 7.99634 25.0124 7.99634C19.3541 7.99634 14.7671 12.5973 14.7671 18.273C14.7671 23.9486 19.3541 28.5496 25.0124 28.5496Z" stroke="white" stroke-linecap="round" stroke-linejoin="round"/>
<path fill-rule="evenodd" clip-rule="evenodd" d="M25 19.8574C25.3139 19.9409 25.5388 20.1117 25.6849 20.3599L25 22L24.3151 20.3599C24.4612 20.1117 24.686 19.9409 25 19.8574ZM21.3425 19.8574C21.6564 19.9409 21.8813 20.1117 22.0274 20.3599L21.3425 22L20.6576 20.3599C20.8036 20.1117 21.0285 19.9409 21.3425 19.8574ZM17.685 19.8574C17.999 19.9409 18.2238 20.1117 18.3699 20.3599L17.685 22L17 20.3599C17.1461 20.1117 17.371 19.9409 17.685 19.8574ZM28.6575 19.8574C28.3435 19.9409 28.1187 20.1117 27.9726 20.3599L28.6575 22L29.3424 20.3599C29.1964 20.1117 28.9715 19.9409 28.6575 19.8574ZM32.3151 19.8574C32.0012 19.9409 31.7762 20.1117 31.6302 20.3599L32.315 22L33 20.3599C32.8539 20.1117 32.6291 19.9409 32.3151 19.8574ZM22.0497 14.8066C22.9108 14.2487 23.8154 13.9005 24.7676 13.783L25 12L25.2324 13.783C26.1847 13.9005 27.0893 14.2487 27.9504 14.8066L25 17.9461L22.0497 14.8066ZM19.5137 17.4253C20.195 17.5825 20.771 17.9158 21.1987 18.4962L19.5137 22L17.8287 18.4962C18.2564 17.9158 18.8323 17.5825 19.5137 17.4253ZM30.4863 17.4253C29.8049 17.5825 29.2291 17.9158 28.8013 18.4962L30.4863 22L32.1713 18.4962C31.7436 17.9158 31.1677 17.5825 30.4863 17.4253ZM26.8288 17.4253C26.1474 17.5825 25.5715 17.9158 25.1438 18.4962L26.8288 22L28.5138 18.4962C28.0861 17.9158 27.5101 17.5825 26.8288 17.4253ZM23.1712 17.4253C23.8526 17.5825 24.4285 17.9158 24.8562 18.4962L23.1712 22L21.4863 18.4962C21.914 17.9158 22.4899 17.5825 23.1712 17.4253ZM28.6575 15.4016C27.9175 15.5102 27.4035 15.8257 27.0438 16.2828L28.6575 18.1135L30.2713 16.2828C29.9116 15.8257 29.3977 15.5102 28.6575 15.4016ZM21.3425 15.4016C22.0826 15.5102 22.5965 15.8257 22.9562 16.2828L21.3425 18.1135L19.7288 16.2828C20.0884 15.8257 20.6024 15.5102 21.3425 15.4016Z" fill="white"/>
</svg>
