<svg width="50" height="50" viewBox="0 0 50 50" fill="none" xmlns="http://www.w3.org/2000/svg">
<path d="M24.9945 4.68286C21.3752 4.68286 17.904 6.12065 15.3447 8.67994C12.7854 11.2392 11.3477 14.7104 11.3477 18.3297C11.3477 29.0099 21.7664 41.862 24.4966 45.0193C24.6431 45.1873 24.8503 45.2904 25.0726 45.306C25.295 45.3216 25.5145 45.2485 25.6831 45.1027L25.7664 45.0193C28.4602 41.8495 38.6404 29.0099 38.6404 18.3287C38.6401 14.7097 37.2023 11.239 34.6433 8.67994C32.0843 6.12091 28.6135 4.68314 24.9945 4.68286Z" fill="#16A75C"/>
<path d="M25.0129 28.5497C30.6712 28.5497 35.2582 23.9487 35.2582 18.2731C35.2582 12.5975 30.6712 7.99646 25.0129 7.99646C19.3546 7.99646 14.7676 12.5975 14.7676 18.2731C14.7676 23.9487 19.3546 28.5497 25.0129 28.5497Z" stroke="white" stroke-linecap="round" stroke-linejoin="round"/>
<g clip-path="url(#clip0_190_130)">
<path d="M32.1874 18.7648C31.7516 20.8032 30.2544 22.4777 28.2801 23.1349C27.6787 23.3362 27.0488 23.4389 26.4147 23.4392C25.1764 23.4407 23.9691 23.0513 22.9642 22.3264C21.9594 21.6016 21.2082 20.578 20.8172 19.4012C20.5703 18.6665 20.4716 17.8901 20.5268 17.1169C20.582 16.3437 20.79 15.5892 21.1387 14.8972C21.4841 14.2028 21.9635 13.5838 22.5492 13.0761C23.1349 12.5684 23.8152 12.182 24.551 11.9392C25.9543 11.4719 27.4816 11.5488 28.8311 12.1547L29.123 11.6034C27.1677 10.3936 24.7323 10.1041 22.5426 10.8336C20.5624 11.493 18.9574 12.8845 18.0234 14.7509C17.0893 16.6176 16.9382 18.7364 17.5975 20.7169C18.1154 22.2757 19.1103 23.6313 20.4412 24.5914C21.772 25.5516 23.371 26.0673 25.0111 26.0654C25.8484 26.0654 26.6792 25.93 27.4809 25.6633C28.9394 25.1804 30.2229 24.2764 31.1701 23.0651C32.1173 21.8537 32.6858 20.3889 32.8043 18.8549L32.1874 18.7648ZM28.3397 14.9973L26.7744 12.0631L25.9783 15.3391L22.7225 15.9801L25.7029 17.6751L25.1903 21.0509L27.7212 18.7452L30.8575 20.2523L29.2557 17.117L31.7919 14.6649L28.3397 14.9973Z" fill="white"/>
</g>
<defs>
<clipPath id="clip0_190_130">
<rect width="15.6095" height="15.6343" fill="white" transform="translate(17.1953 10.4312)"/>
</clipPath>
</defs>
</svg>
