<svg width="50" height="50" viewBox="0 0 50 50" fill="none" xmlns="http://www.w3.org/2000/svg">
<path d="M24.9945 4.68286C21.3752 4.68286 17.904 6.12065 15.3447 8.67994C12.7854 11.2392 11.3477 14.7104 11.3477 18.3297C11.3477 29.0099 21.7664 41.862 24.4966 45.0193C24.6431 45.1873 24.8503 45.2904 25.0726 45.306C25.295 45.3216 25.5145 45.2485 25.6831 45.1027L25.7664 45.0193C28.4602 41.8495 38.6404 29.0099 38.6404 18.3287C38.6401 14.7097 37.2023 11.239 34.6433 8.67994C32.0843 6.12091 28.6135 4.68314 24.9945 4.68286Z" fill="#3C95E8"/>
<path d="M25.0129 28.5497C30.6712 28.5497 35.2582 23.9487 35.2582 18.2731C35.2582 12.5975 30.6712 7.99646 25.0129 7.99646C19.3546 7.99646 14.7676 12.5975 14.7676 18.2731C14.7676 23.9487 19.3546 28.5497 25.0129 28.5497Z" stroke="white" stroke-linecap="round" stroke-linejoin="round"/>
<path d="M17.2861 18.0001L25.0004 10.2858L32.7147 18.0001" stroke="white" stroke-linecap="round" stroke-linejoin="round"/>
<path d="M19 16.2858V23.1429C19 23.3702 19.0903 23.5883 19.2511 23.749C19.4118 23.9097 19.6298 24.0001 19.8571 24.0001H22.4286C22.6559 24.0001 22.8739 23.9097 23.0347 23.749C23.1954 23.5883 23.2857 23.3702 23.2857 23.1429V19.7143C23.2857 19.487 23.376 19.269 23.5368 19.1082C23.6975 18.9475 23.9155 18.8572 24.1429 18.8572H25.8571C26.0845 18.8572 26.3025 18.9475 26.4632 19.1082C26.624 19.269 26.7143 19.487 26.7143 19.7143V23.1429C26.7143 23.3702 26.8046 23.5883 26.9653 23.749C27.1261 23.9097 27.3441 24.0001 27.5714 24.0001H30.1429C30.3702 24.0001 30.5882 23.9097 30.7489 23.749C30.9097 23.5883 31 23.3702 31 23.1429V16.2858" stroke="white" stroke-linecap="round" stroke-linejoin="round"/>
</svg>
