<svg width="920" height="243" viewBox="0 0 920 243" fill="none" xmlns="http://www.w3.org/2000/svg">
<path fill-rule="evenodd" clip-rule="evenodd" d="M146.987 132.453C151.874 133.7 155.376 136.255 157.65 139.967L146.988 164.492L136.324 139.967C138.598 136.255 142.099 133.7 146.987 132.453ZM90.0449 132.453C94.9321 133.7 98.4341 136.255 100.709 139.967L90.046 164.492L79.3822 139.967C81.6557 136.255 85.1577 133.7 90.0449 132.453ZM33.1033 132.453C37.9916 133.7 41.4926 136.255 43.7659 139.967L33.1033 164.492L22.4395 139.967C24.7139 136.255 28.215 133.7 33.1033 132.453ZM203.929 132.453C199.041 133.7 195.54 136.255 193.267 139.967L203.929 164.492L214.592 139.967C212.318 136.255 208.818 133.7 203.929 132.453ZM260.872 132.453C255.985 133.7 252.482 136.255 250.208 139.967L260.871 164.492L271.535 139.967C269.26 136.255 265.76 133.7 260.872 132.453ZM101.055 56.9233C114.462 48.5809 128.544 43.3744 143.369 41.6162L146.988 14.9539L150.605 41.6162C165.431 43.3744 179.514 48.5809 192.92 56.9233L146.988 103.871L101.055 56.9233ZM61.5735 96.0833C72.1812 98.4345 81.1482 103.417 87.8073 112.096L61.5735 164.492L35.3408 112.096C41.9999 103.417 50.9656 98.4345 61.5735 96.0833ZM232.401 96.0833C221.793 98.4345 212.827 103.417 206.167 112.096L232.401 164.492L258.633 112.096C251.974 103.417 243.008 98.4345 232.401 96.0833ZM175.459 96.0833C164.85 98.4345 155.884 103.417 149.225 112.096L175.459 164.492L201.692 112.096C195.033 103.417 186.066 98.4345 175.459 96.0833ZM118.516 96.0833C129.124 98.4345 138.09 103.417 144.749 112.096L118.516 164.492L92.2835 112.096C98.9427 103.417 107.908 98.4345 118.516 96.0833ZM203.929 65.8212C192.408 67.4449 184.405 72.1624 178.807 78.9978L203.929 106.374L229.053 78.9978C223.454 72.1624 215.452 67.4449 203.929 65.8212ZM90.0449 65.8212C101.567 67.4449 109.568 72.1624 115.169 78.9978L90.0449 106.374L64.9221 78.9978C70.5214 72.1624 78.5236 67.4449 90.0449 65.8212Z" fill="#A1845F"/>
<path d="M399.146 12.6502V44.8608H394.972V21.9365C394.972 21.5926 394.979 21.2262 394.994 20.8374C395.024 20.4486 395.054 20.0523 395.084 19.6486L384.358 39.3204C383.984 40.0532 383.408 40.4195 382.63 40.4195H381.957C381.179 40.4195 380.611 40.0532 380.252 39.3204L369.324 19.5813C369.414 20.4187 369.459 21.2038 369.459 21.9365V44.8608H365.263V12.6502H368.808C369.227 12.6502 369.549 12.695 369.773 12.7847C370.012 12.8595 370.237 13.0838 370.446 13.4577L381.217 32.7481C381.426 33.1369 381.621 33.5482 381.8 33.9818C381.98 34.4155 382.152 34.8491 382.316 35.2828C382.63 34.4005 382.997 33.5482 383.416 32.7257L393.985 13.4577C394.179 13.0838 394.389 12.8595 394.613 12.7847C394.852 12.695 395.181 12.6502 395.6 12.6502H399.146ZM417.812 34.7445C416.032 34.8043 414.521 34.9463 413.279 35.1707C412.038 35.38 411.028 35.6641 410.25 36.023C409.472 36.3819 408.911 36.8081 408.567 37.3016C408.223 37.7802 408.051 38.3185 408.051 38.9167C408.051 39.4849 408.141 39.9784 408.32 40.3971C408.515 40.8008 408.769 41.1373 409.083 41.4065C409.412 41.6607 409.794 41.8476 410.228 41.9672C410.661 42.0869 411.133 42.1467 411.641 42.1467C412.314 42.1467 412.928 42.0794 413.481 41.9448C414.05 41.8102 414.581 41.6233 415.074 41.384C415.568 41.1298 416.039 40.8233 416.488 40.4644C416.937 40.1055 417.378 39.6943 417.812 39.2307V34.7445ZM404.977 25.2563C406.248 24.045 407.625 23.1403 409.106 22.5421C410.601 21.944 412.24 21.6449 414.02 21.6449C415.321 21.6449 416.473 21.8617 417.475 22.2954C418.478 22.7141 419.323 23.3048 420.011 24.0674C420.699 24.8301 421.215 25.7423 421.559 26.804C421.918 27.8657 422.098 29.0396 422.098 30.3256V44.8608H420.146C419.712 44.8608 419.383 44.7935 419.158 44.6589C418.934 44.5094 418.754 44.2402 418.62 43.8514L418.148 41.8551C417.565 42.3934 416.989 42.872 416.421 43.2907C415.852 43.6944 415.254 44.0458 414.626 44.3449C414.012 44.629 413.354 44.8459 412.651 44.9954C411.948 45.1449 411.17 45.2197 410.317 45.2197C409.42 45.2197 408.575 45.1001 407.782 44.8608C407.004 44.6066 406.323 44.2253 405.74 43.7169C405.156 43.2084 404.693 42.5729 404.348 41.8102C404.019 41.0476 403.855 40.1578 403.855 39.141C403.855 38.2437 404.094 37.3838 404.573 36.5614C405.067 35.7239 405.859 34.9763 406.951 34.3183C408.058 33.6603 409.495 33.122 411.26 32.7033C413.04 32.2846 415.224 32.0453 417.812 31.9855V30.3256C417.812 28.6059 417.445 27.3199 416.712 26.4675C415.979 25.6151 414.902 25.189 413.481 25.189C412.524 25.189 411.716 25.3086 411.058 25.5479C410.415 25.7871 409.854 26.0563 409.375 26.3554C408.911 26.6395 408.5 26.9012 408.141 27.1404C407.797 27.3797 407.438 27.4993 407.064 27.4993C406.764 27.4993 406.503 27.4171 406.278 27.2526C406.069 27.0881 405.897 26.8937 405.762 26.6694L404.977 25.2563ZM441.399 25.9965C441.279 26.1909 441.152 26.3329 441.018 26.4227C440.883 26.4974 440.711 26.5348 440.502 26.5348C440.262 26.5348 439.993 26.4526 439.694 26.2881C439.409 26.1236 439.058 25.9441 438.639 25.7497C438.235 25.5553 437.756 25.3759 437.203 25.2114C436.649 25.0469 435.991 24.9647 435.228 24.9647C434.6 24.9647 434.024 25.0469 433.501 25.2114C432.992 25.3609 432.558 25.5778 432.199 25.8619C431.84 26.1311 431.563 26.46 431.369 26.8488C431.174 27.2227 431.077 27.6264 431.077 28.0601C431.077 28.6283 431.242 29.0994 431.571 29.4732C431.915 29.8471 432.356 30.1686 432.895 30.4378C433.448 30.7069 434.069 30.9537 434.757 31.178C435.46 31.3873 436.171 31.6116 436.889 31.8509C437.622 32.0902 438.332 32.3668 439.021 32.6808C439.724 32.9799 440.344 33.3612 440.883 33.8248C441.436 34.2734 441.878 34.8192 442.207 35.4623C442.551 36.1053 442.723 36.8903 442.723 37.8176C442.723 38.8793 442.528 39.8662 442.14 40.7784C441.766 41.6757 441.205 42.4533 440.457 43.1112C439.724 43.7692 438.811 44.2851 437.719 44.6589C436.627 45.0328 435.378 45.2197 433.972 45.2197C432.401 45.2197 430.95 44.958 429.619 44.4346C428.287 43.9112 427.173 43.2458 426.275 42.4383L427.307 40.756C427.427 40.5466 427.577 40.3896 427.756 40.2849C427.936 40.1653 428.175 40.1055 428.474 40.1055C428.758 40.1055 429.05 40.2102 429.349 40.4195C429.648 40.6289 430.008 40.8607 430.426 41.1149C430.845 41.3541 431.354 41.5785 431.952 41.7878C432.551 41.9822 433.299 42.0794 434.196 42.0794C434.944 42.0794 435.595 41.9897 436.148 41.8102C436.702 41.6158 437.158 41.3616 437.517 41.0476C437.891 40.7186 438.168 40.3448 438.347 39.9261C438.527 39.5073 438.617 39.0662 438.617 38.6026C438.617 38.0045 438.445 37.511 438.101 37.1221C437.771 36.7184 437.33 36.3744 436.777 36.0903C436.238 35.8062 435.617 35.5595 434.914 35.3501C434.211 35.1407 433.493 34.9164 432.76 34.6772C432.027 34.4379 431.309 34.1613 430.606 33.8472C429.903 33.5332 429.275 33.1369 428.721 32.6584C428.182 32.1799 427.741 31.5967 427.397 30.9088C427.068 30.2209 426.903 29.3835 426.903 28.3966C426.903 27.5143 427.083 26.6694 427.442 25.8619C427.816 25.0544 428.347 24.3441 429.035 23.731C429.738 23.1179 430.598 22.6319 431.616 22.273C432.648 21.8991 433.822 21.7122 435.139 21.7122C436.649 21.7122 438.011 21.9515 439.222 22.43C440.449 22.9085 441.496 23.5665 442.364 24.4039L441.399 25.9965ZM452.039 22.0711V46.2964C452.039 47.2385 451.912 48.1133 451.657 48.9208C451.418 49.7433 451.029 50.4536 450.491 51.0517C449.967 51.6648 449.279 52.1433 448.426 52.4873C447.588 52.8312 446.571 53.0032 445.374 53.0032C444.881 53.0032 444.432 52.9658 444.028 52.891C443.609 52.8163 443.19 52.7116 442.772 52.577L442.951 50.1993C443.011 49.9152 443.146 49.7582 443.355 49.7283C443.549 49.6984 443.931 49.6834 444.499 49.6834C445.651 49.6834 446.467 49.4217 446.945 48.8984C447.424 48.375 447.663 47.5076 447.663 46.2964V22.0711H452.039ZM452.869 15.0278C452.869 15.4316 452.787 15.8204 452.622 16.1942C452.458 16.5531 452.233 16.8746 451.949 17.1587C451.665 17.4279 451.336 17.6447 450.962 17.8092C450.603 17.9588 450.214 18.0335 449.795 18.0335C449.391 18.0335 449.01 17.9588 448.651 17.8092C448.292 17.6447 447.97 17.4279 447.686 17.1587C447.416 16.8746 447.2 16.5531 447.035 16.1942C446.885 15.8204 446.811 15.4316 446.811 15.0278C446.811 14.6091 446.885 14.2203 447.035 13.8614C447.2 13.4876 447.416 13.1661 447.686 12.8969C447.97 12.6128 448.292 12.3959 448.651 12.2464C449.01 12.0819 449.391 11.9997 449.795 11.9997C450.214 11.9997 450.603 12.0819 450.962 12.2464C451.336 12.3959 451.665 12.6128 451.949 12.8969C452.233 13.1661 452.458 13.4876 452.622 13.8614C452.787 14.2203 452.869 14.6091 452.869 15.0278ZM462.952 22.0711V44.8608H458.576V22.0711H462.952ZM463.782 15.0278C463.782 15.4316 463.7 15.8204 463.535 16.1942C463.371 16.5531 463.146 16.8746 462.862 17.1587C462.593 17.4279 462.271 17.6447 461.897 17.8092C461.523 17.9588 461.134 18.0335 460.73 18.0335C460.326 18.0335 459.945 17.9588 459.586 17.8092C459.227 17.6447 458.905 17.4279 458.621 17.1587C458.352 16.8746 458.135 16.5531 457.97 16.1942C457.821 15.8204 457.746 15.4316 457.746 15.0278C457.746 14.6091 457.821 14.2203 457.97 13.8614C458.135 13.4876 458.352 13.1661 458.621 12.8969C458.905 12.6128 459.227 12.3959 459.586 12.2464C459.945 12.0819 460.326 11.9997 460.73 11.9997C461.134 11.9997 461.523 12.0819 461.897 12.2464C462.271 12.3959 462.593 12.6128 462.862 12.8969C463.146 13.1661 463.371 13.4876 463.535 13.8614C463.7 14.2203 463.782 14.6091 463.782 15.0278ZM483.985 27.5891C483.267 26.647 482.489 25.989 481.651 25.6151C480.828 25.2413 479.901 25.0544 478.868 25.0544C476.864 25.0544 475.308 25.7796 474.201 27.2302C473.109 28.6657 472.563 30.7667 472.563 33.5332C472.563 34.9837 472.683 36.2249 472.922 37.2567C473.176 38.2737 473.535 39.1111 473.999 39.769C474.478 40.4121 475.061 40.8906 475.749 41.2046C476.438 41.5037 477.215 41.6532 478.083 41.6532C479.355 41.6532 480.454 41.3691 481.382 40.8009C482.309 40.2326 483.177 39.4326 483.985 38.4008V27.5891ZM488.383 11.7529V44.8608H485.735C485.121 44.8608 484.74 44.5692 484.59 43.986L484.209 41.3616C483.237 42.5131 482.13 43.4402 480.888 44.143C479.661 44.8309 478.24 45.1749 476.625 45.1749C475.323 45.1749 474.141 44.9206 473.079 44.4122C472.032 43.9038 471.134 43.1636 470.387 42.1916C469.639 41.2046 469.063 39.9859 468.659 38.5353C468.255 37.0847 468.053 35.4174 468.053 33.5332C468.053 31.8434 468.277 30.2733 468.726 28.8227C469.175 27.3722 469.826 26.1161 470.678 25.0544C471.531 23.9927 472.563 23.1627 473.775 22.5646C474.987 21.9515 476.355 21.6449 477.881 21.6449C479.257 21.6449 480.424 21.8692 481.382 22.3178C482.354 22.7664 483.222 23.402 483.985 24.2244V11.7529H488.383ZM515.867 28.1723C517.093 28.1723 518.17 28.0227 519.098 27.7236C520.04 27.4246 520.826 27.0059 521.454 26.4675C522.082 25.9142 522.554 25.2637 522.868 24.516C523.182 23.7534 523.339 22.916 523.339 22.0038C523.339 20.1495 522.726 18.7513 521.499 17.8092C520.287 16.8671 518.462 16.3961 516.024 16.3961H511.514V28.1723H515.867ZM530.901 44.8608H526.637C525.785 44.8608 525.164 44.5244 524.775 43.8514L516.809 32.6808C516.555 32.307 516.278 32.0453 515.979 31.8958C515.68 31.7313 515.231 31.649 514.633 31.649H511.514V44.8608H506.734V12.6502H516.024C518.103 12.6502 519.891 12.867 521.387 13.3007C522.898 13.7194 524.139 14.325 525.112 15.1175C526.099 15.8951 526.824 16.8372 527.288 17.9438C527.767 19.0504 528.006 20.2916 528.006 21.6673C528.006 22.7889 527.834 23.8431 527.49 24.8301C527.146 25.817 526.637 26.7068 525.964 27.4993C525.306 28.2769 524.498 28.9499 523.541 29.5181C522.583 30.0863 521.499 30.52 520.287 30.8191C520.886 31.178 521.402 31.6789 521.835 32.3219L530.901 44.8608ZM546.051 34.7445C544.271 34.8043 542.76 34.9463 541.518 35.1707C540.277 35.38 539.267 35.6641 538.489 36.023C537.711 36.3819 537.15 36.8081 536.806 37.3016C536.462 37.7802 536.29 38.3185 536.29 38.9167C536.29 39.4849 536.38 39.9784 536.559 40.3971C536.754 40.8008 537.008 41.1373 537.322 41.4065C537.651 41.6607 538.033 41.8476 538.467 41.9672C538.9 42.0869 539.372 42.1467 539.88 42.1467C540.553 42.1467 541.167 42.0794 541.72 41.9448C542.289 41.8102 542.82 41.6233 543.313 41.384C543.807 41.1298 544.278 40.8233 544.727 40.4644C545.176 40.1055 545.617 39.6943 546.051 39.2307V34.7445ZM533.216 25.2563C534.487 24.045 535.864 23.1403 537.345 22.5421C538.841 21.944 540.479 21.6449 542.259 21.6449C543.56 21.6449 544.712 21.8617 545.714 22.2954C546.717 22.7141 547.562 23.3048 548.25 24.0674C548.938 24.8301 549.454 25.7423 549.798 26.804C550.157 27.8657 550.337 29.0396 550.337 30.3256V44.8608H548.385C547.951 44.8608 547.622 44.7935 547.397 44.6589C547.173 44.5094 546.993 44.2402 546.859 43.8514L546.388 41.8551C545.804 42.3934 545.228 42.872 544.66 43.2907C544.091 43.6944 543.493 44.0458 542.865 44.3449C542.251 44.629 541.593 44.8459 540.89 44.9954C540.187 45.1449 539.409 45.2197 538.556 45.2197C537.659 45.2197 536.814 45.1001 536.021 44.8608C535.243 44.6066 534.562 44.2253 533.979 43.7169C533.395 43.2084 532.932 42.5729 532.587 41.8102C532.258 41.0476 532.094 40.1578 532.094 39.141C532.094 38.2437 532.333 37.3838 532.812 36.5614C533.306 35.7239 534.098 34.9763 535.19 34.3183C536.297 33.6603 537.734 33.122 539.499 32.7033C541.279 32.2846 543.463 32.0453 546.051 31.9855V30.3256C546.051 28.6059 545.684 27.3199 544.951 26.4675C544.218 25.6151 543.141 25.189 541.72 25.189C540.763 25.189 539.955 25.3086 539.297 25.5479C538.654 25.7871 538.093 26.0563 537.614 26.3554C537.15 26.6395 536.739 26.9012 536.38 27.1404C536.036 27.3797 535.677 27.4993 535.303 27.4993C535.003 27.4993 534.742 27.4171 534.517 27.2526C534.308 27.0881 534.136 26.8937 534.001 26.6694L533.216 25.2563ZM575.547 22.0711L562.891 51.4779C562.757 51.8069 562.577 52.0611 562.353 52.2405C562.128 52.42 561.799 52.5097 561.366 52.5097H558.112L562.286 43.4253L552.929 22.0711H556.743C557.117 22.0711 557.409 22.1608 557.618 22.3403C557.828 22.5197 557.977 22.7216 558.067 22.9459L563.856 36.6287C563.976 36.9726 564.088 37.324 564.193 37.683C564.313 38.0269 564.41 38.3708 564.485 38.7148C564.589 38.3559 564.701 38.0045 564.821 37.6605C564.941 37.3016 565.068 36.9502 565.203 36.6062L570.79 22.9459C570.895 22.6917 571.059 22.4823 571.284 22.3178C571.508 22.1533 571.762 22.0711 572.047 22.0711H575.547ZM590.663 34.7445C588.883 34.8043 587.372 34.9463 586.131 35.1707C584.889 35.38 583.879 35.6641 583.101 36.023C582.324 36.3819 581.763 36.8081 581.419 37.3016C581.075 37.7802 580.902 38.3185 580.902 38.9167C580.902 39.4849 580.992 39.9784 581.172 40.3971C581.366 40.8008 581.621 41.1373 581.935 41.4065C582.264 41.6607 582.645 41.8476 583.079 41.9672C583.513 42.0869 583.984 42.1467 584.493 42.1467C585.166 42.1467 585.779 42.0794 586.333 41.9448C586.901 41.8102 587.432 41.6233 587.926 41.384C588.42 41.1298 588.891 40.8233 589.34 40.4644C589.788 40.1055 590.23 39.6943 590.663 39.2307V34.7445ZM577.828 25.2563C579.1 24.045 580.476 23.1403 581.957 22.5421C583.453 21.944 585.091 21.6449 586.871 21.6449C588.173 21.6449 589.325 21.8617 590.327 22.2954C591.329 22.7141 592.174 23.3048 592.862 24.0674C593.551 24.8301 594.067 25.7423 594.411 26.804C594.77 27.8657 594.949 29.0396 594.949 30.3256V44.8608H592.997C592.563 44.8608 592.234 44.7935 592.01 44.6589C591.785 44.5094 591.606 44.2402 591.471 43.8514L591 41.8551C590.417 42.3934 589.841 42.872 589.272 43.2907C588.704 43.6944 588.105 44.0458 587.477 44.3449C586.864 44.629 586.206 44.8459 585.502 44.9954C584.799 45.1449 584.022 45.2197 583.169 45.2197C582.271 45.2197 581.426 45.1001 580.633 44.8608C579.855 44.6066 579.175 44.2253 578.591 43.7169C578.008 43.2084 577.544 42.5729 577.2 41.8102C576.871 41.0476 576.706 40.1578 576.706 39.141C576.706 38.2437 576.946 37.3838 577.424 36.5614C577.918 35.7239 578.711 34.9763 579.803 34.3183C580.91 33.6603 582.346 33.122 584.111 32.7033C585.891 32.2846 588.075 32.0453 590.663 31.9855V30.3256C590.663 28.6059 590.297 27.3199 589.564 26.4675C588.831 25.6151 587.754 25.189 586.333 25.189C585.375 25.189 584.568 25.3086 583.909 25.5479C583.266 25.7871 582.705 26.0563 582.226 26.3554C581.763 26.6395 581.351 26.9012 580.992 27.1404C580.648 27.3797 580.289 27.4993 579.915 27.4993C579.616 27.4993 579.354 27.4171 579.13 27.2526C578.92 27.0881 578.748 26.8937 578.614 26.6694L577.828 25.2563Z" fill="#1A4373"/>
<path d="M393.964 155.582H486.902C489.224 170.663 502.65 179.447 518.231 179.447C534.129 179.447 547.787 170.297 549.69 154.64H860.415V123.954L860.474 119.895C861.088 113.02 866.391 108.887 871.993 109.211C877.842 109.211 882.768 113.222 882.655 120.901V125.248L898.595 120.748C898.886 107.07 892.341 96.4907 876.806 96.4907C870.168 96.4907 864.184 98.8374 860.474 104.125V96.6608L844.363 104.446V141.04H830.978V112.078L814.901 117.439V125.094C814.545 133.722 811 139.986 803.075 139.986C794.563 140.105 790.308 133.485 790.308 124.503C790.663 113.631 796.456 108.668 805.443 108.668C807.496 108.668 809.856 108.853 812.215 109.449V95.77C810.402 95.5718 808.573 95.4567 806.74 95.4301C787.469 95.0757 774.346 105.239 773.755 124.503C773.755 130.566 774.899 136.263 777.255 141.04H757.745C760.213 136.772 761.675 131.415 761.784 124.848C762.135 104.401 749.368 95.1838 737.191 95.1838C733.971 95.1838 731.248 95.6444 728.892 96.6291V109.714C730.018 109.262 731.282 109.011 732.699 109.011C741.091 109.011 745.467 116.102 745.112 124.965C744.992 136.192 739.083 141.04 730.571 141.04C727.377 141.04 724.303 140.329 721.113 139.267V103.532V67.2922L704.916 75.0772V141.04H688.935C691.404 136.772 692.866 131.415 692.971 124.848C693.33 104.401 680.558 95.1838 668.381 95.1838C665.161 95.1838 662.439 95.6444 660.086 96.6291V109.714C661.208 109.262 662.472 109.011 663.89 109.011C672.282 109.011 676.658 116.102 676.302 124.965C676.186 136.192 670.274 141.04 661.762 141.04C658.568 141.04 655.494 140.329 652.304 139.267V103.532V67.2922L636.107 75.0772V141.04H619.199V112.101L603.117 117.46V125.21C602.766 133.837 599.217 140.099 591.296 140.099C582.784 140.218 578.528 133.6 578.528 124.618C578.883 113.745 584.676 108.781 593.659 108.781C595.731 108.781 598.121 108.97 600.503 109.579V95.8922C598.663 95.6885 596.816 95.57 594.961 95.5453C575.69 95.189 562.566 105.354 561.975 124.618C561.975 130.632 563.101 136.288 565.42 141.04H549.915V67.2922L532.184 75.8156V150.491C532.184 159.117 526.627 163.728 518.231 163.728C509.835 163.728 504.281 159.119 504.281 150.491V141.401H464.71C460.45 141.401 458.644 136.744 458.644 132.181V67.2922L442.327 75.1142V132.181C442.327 135.72 442.645 138.78 443.266 141.401H425.423V100.272C425.423 82.3429 410.935 71.778 393.836 71.6715C376.82 71.5672 362.049 82.3694 362.049 100.272V150.491C362.049 159.119 356.494 163.728 348.098 163.728C339.705 163.728 334.147 159.119 334.147 150.491V141.401H316.414V150.845C316.414 168.811 330.955 179.447 348.098 179.447C365.241 179.447 379.784 168.811 379.784 150.845V100.626C379.784 92.0779 385.241 87.4324 393.507 87.3921C401.982 87.3495 407.685 91.7818 407.685 100.626V141.401H393.964V155.582ZM495.41 94.0327L510.115 108.731L495.41 123.428L480.709 108.731L495.41 94.0327Z" fill="#022B55"/>
<path d="M30.1596 222C27.9762 222 25.8602 221.691 23.8116 221.074C21.7899 220.456 20.186 219.637 19 218.617L20.8195 214.549C21.9786 215.462 23.3938 216.213 25.065 216.804C26.7632 217.368 28.4614 217.65 30.1596 217.65C32.2622 217.65 33.8256 217.314 34.8499 216.643C35.9012 215.972 36.4268 215.086 36.4268 213.985C36.4268 213.179 36.1303 212.521 35.5373 212.011C34.9712 211.474 34.2434 211.058 33.3539 210.762C32.4643 210.467 31.2513 210.131 29.7149 209.756C27.5584 209.245 25.8063 208.735 24.4585 208.225C23.1377 207.715 21.9921 206.923 21.0217 205.849C20.0782 204.748 19.6065 203.271 19.6065 201.418C19.6065 199.861 20.0243 198.451 20.8599 197.189C21.7225 195.9 23.0029 194.88 24.7011 194.128C26.4263 193.376 28.5288 193 31.0087 193C32.7339 193 34.4321 193.215 36.1033 193.644C37.7746 194.074 39.2167 194.692 40.4297 195.497L38.772 199.565C37.532 198.84 36.2381 198.29 34.8903 197.914C33.5426 197.538 32.2352 197.35 30.9683 197.35C28.8927 197.35 27.3428 197.699 26.3185 198.397C25.3211 199.095 24.8224 200.022 24.8224 201.176C24.8224 201.982 25.1054 202.64 25.6715 203.15C26.2645 203.66 27.0058 204.063 27.8954 204.358C28.7849 204.654 29.9979 204.989 31.5344 205.365C33.6369 205.849 35.3621 206.359 36.7098 206.896C38.0576 207.406 39.2032 208.198 40.1467 209.272C41.1171 210.346 41.6023 211.796 41.6023 213.622C41.6023 215.18 41.171 216.589 40.3084 217.851C39.4728 219.113 38.1924 220.12 36.4672 220.872C34.7421 221.624 32.6395 222 30.1596 222Z" fill="black"/>
<path d="M47.4209 193.403H52.6773V221.597H47.4209V193.403Z" fill="black"/>
<path d="M69.7133 222C67.5299 222 65.4139 221.691 63.3653 221.074C61.3436 220.456 59.7397 219.637 58.5537 218.617L60.3732 214.549C61.5323 215.462 62.9475 216.213 64.6187 216.804C66.3169 217.368 68.0151 217.65 69.7133 217.65C71.8159 217.65 73.3793 217.314 74.4036 216.643C75.4549 215.972 75.9805 215.086 75.9805 213.985C75.9805 213.179 75.684 212.521 75.091 212.011C74.5249 211.474 73.7971 211.058 72.9076 210.762C72.018 210.467 70.805 210.131 69.2686 209.756C67.1121 209.245 65.36 208.735 64.0122 208.225C62.6914 207.715 61.5458 206.923 60.5754 205.849C59.6319 204.748 59.1602 203.271 59.1602 201.418C59.1602 199.861 59.578 198.451 60.4136 197.189C61.2762 195.9 62.5566 194.88 64.2548 194.128C65.98 193.376 68.0825 193 70.5624 193C72.2876 193 73.9858 193.215 75.657 193.644C77.3283 194.074 78.7704 194.692 79.9834 195.497L78.3256 199.565C77.0857 198.84 75.7918 198.29 74.444 197.914C73.0963 197.538 71.7889 197.35 70.522 197.35C68.4464 197.35 66.8965 197.699 65.8721 198.397C64.8748 199.095 64.3761 200.022 64.3761 201.176C64.3761 201.982 64.6591 202.64 65.2252 203.15C65.8182 203.66 66.5595 204.063 67.4491 204.358C68.3386 204.654 69.5516 204.989 71.0881 205.365C73.1906 205.849 74.9158 206.359 76.2635 206.896C77.6113 207.406 78.7569 208.198 79.7004 209.272C80.6708 210.346 81.156 211.796 81.156 213.622C81.156 215.18 80.7247 216.589 79.8621 217.851C79.0265 219.113 77.7461 220.12 76.0209 220.872C74.2958 221.624 72.1932 222 69.7133 222Z" fill="black"/>
<path d="M92.3213 197.833H82.9408V193.403H106.958V197.833H97.5777V221.597H92.3213V197.833Z" fill="black"/>
<path d="M132.737 217.207V221.597H111.509V193.403H132.171V197.793H116.766V205.124H130.432V209.433H116.766V217.207H132.737Z" fill="black"/>
<path d="M165.202 221.597L165.162 202.908L155.862 218.375H153.517L144.217 203.15V221.597H139.203V193.403H143.53L154.77 212.092L165.808 193.403H170.135L170.175 221.597H165.202Z" fill="black"/>
<path d="M190.208 193.403H195.464V221.597H190.208V193.403Z" fill="black"/>
<path d="M228.876 193.403V221.597H224.549L208.942 202.506V221.597H203.726V193.403H208.053L223.66 212.494V193.403H228.876Z" fill="black"/>
<path d="M242.323 197.793V206.372H255.989V210.803H242.323V221.597H237.066V193.403H257.728V197.793H242.323Z" fill="black"/>
<path d="M276.323 222C273.439 222 270.838 221.382 268.52 220.147C266.202 218.885 264.382 217.153 263.061 214.951C261.74 212.723 261.08 210.239 261.08 207.5C261.08 204.761 261.74 202.291 263.061 200.089C264.382 197.86 266.202 196.128 268.52 194.893C270.838 193.631 273.439 193 276.323 193C279.208 193 281.809 193.631 284.127 194.893C286.445 196.128 288.265 197.847 289.586 200.049C290.906 202.25 291.567 204.734 291.567 207.5C291.567 210.266 290.906 212.75 289.586 214.951C288.265 217.153 286.445 218.885 284.127 220.147C281.809 221.382 279.208 222 276.323 222ZM276.323 217.408C278.21 217.408 279.909 216.992 281.418 216.16C282.928 215.3 284.114 214.119 284.976 212.615C285.839 211.085 286.27 209.38 286.27 207.5C286.27 205.62 285.839 203.929 284.976 202.425C284.114 200.894 282.928 199.713 281.418 198.881C279.909 198.021 278.21 197.592 276.323 197.592C274.437 197.592 272.738 198.021 271.229 198.881C269.719 199.713 268.533 200.894 267.671 202.425C266.808 203.929 266.377 205.62 266.377 207.5C266.377 209.38 266.808 211.085 267.671 212.615C268.533 214.119 269.719 215.3 271.229 216.16C272.738 216.992 274.437 217.408 276.323 217.408Z" fill="black"/>
<path d="M316.264 221.597L310.482 213.34C310.239 213.367 309.875 213.381 309.39 213.381H303.001V221.597H297.745V193.403H309.39C311.843 193.403 313.972 193.806 315.778 194.611C317.611 195.417 319.013 196.571 319.983 198.075C320.954 199.579 321.439 201.364 321.439 203.432C321.439 205.553 320.913 207.379 319.862 208.91C318.838 210.44 317.355 211.581 315.414 212.333L321.924 221.597H316.264ZM316.142 203.432C316.142 201.633 315.549 200.25 314.363 199.283C313.177 198.317 311.438 197.833 309.147 197.833H303.001V209.071H309.147C311.438 209.071 313.177 208.588 314.363 207.621C315.549 206.627 316.142 205.231 316.142 203.432Z" fill="black"/>
<path d="M353.925 221.597L353.885 202.908L344.585 218.375H342.24L332.94 203.15V221.597H327.926V193.403H332.253L343.493 212.092L354.532 193.403H358.858L358.898 221.597H353.925Z" fill="black"/>
<path d="M385.507 215.072H371.355L368.565 221.597H363.147L375.884 193.403H381.059L393.836 221.597H388.337L385.507 215.072ZM383.768 210.964L378.431 198.639L373.134 210.964H383.768Z" fill="black"/>
<path d="M406.816 222C404.633 222 402.517 221.691 400.468 221.074C398.446 220.456 396.842 219.637 395.656 218.617L397.476 214.549C398.635 215.462 400.05 216.213 401.721 216.804C403.42 217.368 405.118 217.65 406.816 217.65C408.919 217.65 410.482 217.314 411.506 216.643C412.558 215.972 413.083 215.086 413.083 213.985C413.083 213.179 412.787 212.521 412.194 212.011C411.628 211.474 410.9 211.058 410.01 210.762C409.121 210.467 407.908 210.131 406.371 209.756C404.215 209.245 402.463 208.735 401.115 208.225C399.794 207.715 398.649 206.923 397.678 205.849C396.735 204.748 396.263 203.271 396.263 201.418C396.263 199.861 396.681 198.451 397.516 197.189C398.379 195.9 399.659 194.88 401.358 194.128C403.083 193.376 405.185 193 407.665 193C409.39 193 411.089 193.215 412.76 193.644C414.431 194.074 415.873 194.692 417.086 195.497L415.428 199.565C414.188 198.84 412.895 198.29 411.547 197.914C410.199 197.538 408.892 197.35 407.625 197.35C405.549 197.35 403.999 197.699 402.975 198.397C401.978 199.095 401.479 200.022 401.479 201.176C401.479 201.982 401.762 202.64 402.328 203.15C402.921 203.66 403.662 204.063 404.552 204.358C405.441 204.654 406.654 204.989 408.191 205.365C410.293 205.849 412.018 206.359 413.366 206.896C414.714 207.406 415.86 208.198 416.803 209.272C417.774 210.346 418.259 211.796 418.259 213.622C418.259 215.18 417.827 216.589 416.965 217.851C416.129 219.113 414.849 220.12 413.124 220.872C411.399 221.624 409.296 222 406.816 222Z" fill="black"/>
<path d="M424.077 193.403H429.334V221.597H424.077V193.403Z" fill="black"/>
<path d="M461.022 193.403C463.474 193.403 465.604 193.806 467.41 194.611C469.243 195.417 470.645 196.571 471.615 198.075C472.585 199.579 473.071 201.364 473.071 203.432C473.071 205.473 472.585 207.258 471.615 208.789C470.645 210.293 469.243 211.447 467.41 212.253C465.604 213.058 463.474 213.461 461.022 213.461H454.633V221.597H449.377V193.403H461.022ZM460.779 209.031C463.07 209.031 464.809 208.547 465.995 207.581C467.181 206.614 467.774 205.231 467.774 203.432C467.774 201.633 467.181 200.25 465.995 199.283C464.809 198.317 463.07 197.833 460.779 197.833H454.633V209.031H460.779Z" fill="black"/>
<path d="M500.154 217.207V221.597H478.926V193.403H499.588V197.793H484.183V205.124H497.849V209.433H484.183V217.207H500.154Z" fill="black"/>
<path d="M532.619 221.597L532.578 202.908L523.279 218.375H520.933L511.634 203.15V221.597H506.62V193.403H510.946L522.187 212.092L533.225 193.403H537.552L537.592 221.597H532.619Z" fill="black"/>
<path d="M567.071 217.207V221.597H545.844V193.403H566.505V197.793H551.1V205.124H564.766V209.433H551.1V217.207H567.071Z" fill="black"/>
<path d="M579.279 197.833H569.898V193.403H593.916V197.833H584.535V221.597H579.279V197.833Z" fill="black"/>
<path d="M615.402 215.072H601.251L598.461 221.597H593.043L605.779 193.403H610.955L623.732 221.597H618.233L615.402 215.072ZM613.664 210.964L608.327 198.639L603.03 210.964H613.664Z" fill="black"/>
<path d="M647.005 215.072H632.854L630.064 221.597H624.646L637.382 193.403H642.558L655.334 221.597H649.836L647.005 215.072ZM645.267 210.964L639.929 198.639L634.633 210.964H645.267Z" fill="black"/>
<path d="M684.69 193.403V221.597H680.364L664.756 202.506V221.597H659.541V193.403H663.867L679.474 212.494V193.403H684.69Z" fill="black"/>
<path d="M704.662 193.403H717.034C720.053 193.403 722.735 193.994 725.081 195.175C727.426 196.33 729.245 197.981 730.539 200.129C731.833 202.25 732.48 204.707 732.48 207.5C732.48 210.293 731.833 212.763 730.539 214.911C729.245 217.032 727.426 218.684 725.081 219.865C722.735 221.02 720.053 221.597 717.034 221.597H704.662V193.403ZM716.792 217.167C718.867 217.167 720.687 216.777 722.25 215.999C723.841 215.193 725.054 214.065 725.889 212.615C726.752 211.138 727.183 209.433 727.183 207.5C727.183 205.567 726.752 203.875 725.889 202.425C725.054 200.948 723.841 199.82 722.25 199.042C720.687 198.236 718.867 197.833 716.792 197.833H709.918V217.167H716.792Z" fill="black"/>
<path d="M756.635 215.072H742.483L739.694 221.597H734.275L747.012 193.403H752.187L764.964 221.597H759.465L756.635 215.072ZM754.896 210.964L749.559 198.639L744.262 210.964H754.896Z" fill="black"/>
<path d="M778.915 209.796L774.427 214.388V221.597H769.17V193.403H774.427V207.862L788.417 193.403H794.32L782.433 206.01L795.048 221.597H788.902L778.915 209.796Z" fill="black"/>
<path d="M838.978 193.403L829.597 221.597H824.017L817.022 200.733L809.906 221.597H804.286L794.905 193.403H800.364L807.399 214.831L814.718 193.403H819.57L826.727 214.951L833.964 193.403H838.978Z" fill="black"/>
<path d="M861.315 215.072H847.163L844.373 221.597H838.955L851.692 193.403H856.867L869.644 221.597H864.145L861.315 215.072ZM859.576 210.964L854.239 198.639L848.942 210.964H859.576Z" fill="black"/>
<path d="M899 193.403V221.597H893.744V209.514H879.107V221.597H873.85V193.403H879.107V205.043H893.744V193.403H899Z" fill="black"/>
</svg>
