<svg width="235" height="48" viewBox="0 0 235 48" fill="none" xmlns="http://www.w3.org/2000/svg">
<path fill-rule="evenodd" clip-rule="evenodd" d="M33.3028 35.4298H33.3031C34.6099 35.7635 35.546 36.4469 36.1542 37.4397L33.3031 44H33.3028L30.4517 37.4397C31.0599 36.4469 31.996 35.7635 33.3028 35.4298ZM18.0771 35.4298H18.0774C19.3842 35.7635 20.3203 36.4469 20.9285 37.4397L18.0774 44H18.0771L15.226 37.4397C15.8339 36.4469 16.7703 35.7635 18.0771 35.4298ZM2.85141 35.4298C4.15851 35.7635 5.09465 36.4469 5.70251 37.4397L2.85141 44L0 37.4397C0.608174 36.4469 1.54432 35.7635 2.85141 35.4298ZM48.5288 35.4298C47.2217 35.7635 46.2855 36.4469 45.6777 37.4397L48.5288 44L51.3799 37.4397C50.772 36.4469 49.8359 35.7635 48.5288 35.4298ZM63.7548 35.4298H63.7545C62.4477 35.7635 61.5115 36.4469 60.9034 37.4397L63.7545 44H63.7548L66.6059 37.4397C65.9977 36.4469 65.0619 35.7635 63.7548 35.4298ZM21.0212 15.2264C24.6059 12.9949 28.3715 11.6022 32.3354 11.1319L33.3031 4L34.2704 11.1319C38.2347 11.6022 42.0003 12.9949 45.585 15.2264L33.3031 27.7844L21.0212 15.2264ZM10.4641 25.7013C13.3005 26.3302 15.6982 27.6631 17.4788 29.9846L10.4641 44L3.44972 29.9846C5.2303 27.6631 7.62765 26.3302 10.4641 25.7013ZM56.1418 25.7013C53.3053 26.3302 50.908 27.6631 49.1271 29.9846L56.1418 44L63.1562 29.9846C61.3756 27.6631 58.9782 26.3302 56.1418 25.7013ZM40.9161 25.7013C38.0793 26.3302 35.682 27.6631 33.9014 29.9846L40.9161 44L47.9305 29.9846C46.1499 27.6631 43.7522 26.3302 40.9161 25.7013ZM25.6901 25.7013C28.5265 26.3302 30.9239 27.6631 32.7045 29.9846L25.6901 44L18.6757 29.9846C20.4563 27.6631 22.8536 26.3302 25.6901 25.7013ZM48.5288 17.6065C45.4481 18.0408 43.3083 19.3027 41.8112 21.1311L48.5288 28.454L55.2467 21.1311C53.7495 19.3027 51.6098 18.0408 48.5288 17.6065ZM18.0771 17.6065C21.1581 18.0408 23.2975 19.3027 24.795 21.1311L18.0771 28.454L11.3595 21.1311C12.8567 19.3027 14.9964 18.0408 18.0771 17.6065Z" fill="#A1845F"/>
<path d="M100.728 3.38388V11.9999H99.6118V5.86788C99.6118 5.77588 99.6138 5.67788 99.6178 5.57388C99.6258 5.46988 99.6338 5.36388 99.6418 5.25588L96.7738 10.5179C96.6738 10.7139 96.5198 10.8119 96.3118 10.8119H96.1318C95.9238 10.8119 95.7718 10.7139 95.6758 10.5179L92.7538 5.23788C92.7778 5.46188 92.7898 5.67188 92.7898 5.86788V11.9999H91.6678V3.38388H92.6158C92.7278 3.38388 92.8138 3.39588 92.8738 3.41988C92.9378 3.43988 92.9978 3.49988 93.0538 3.59988L95.9338 8.75988C95.9898 8.86388 96.0418 8.97388 96.0898 9.08988C96.1378 9.20588 96.1838 9.32188 96.2278 9.43788C96.3118 9.20188 96.4098 8.97388 96.5218 8.75388L99.3478 3.59988C99.3998 3.49988 99.4558 3.43988 99.5158 3.41988C99.5798 3.39588 99.6678 3.38388 99.7798 3.38388H100.728ZM105.719 9.29388C105.243 9.30988 104.839 9.34788 104.507 9.40788C104.175 9.46388 103.905 9.53988 103.697 9.63588C103.489 9.73188 103.339 9.84588 103.247 9.97788C103.155 10.1059 103.109 10.2499 103.109 10.4099C103.109 10.5619 103.133 10.6939 103.181 10.8059C103.233 10.9139 103.301 11.0039 103.385 11.0759C103.473 11.1439 103.575 11.1939 103.691 11.2259C103.807 11.2579 103.933 11.2739 104.069 11.2739C104.249 11.2739 104.413 11.2559 104.561 11.2199C104.713 11.1839 104.855 11.1339 104.987 11.0699C105.119 11.0019 105.245 10.9199 105.365 10.8239C105.485 10.7279 105.603 10.6179 105.719 10.4939V9.29388ZM102.287 6.75588C102.627 6.43188 102.995 6.18988 103.391 6.02988C103.791 5.86988 104.229 5.78988 104.705 5.78988C105.053 5.78988 105.361 5.84788 105.629 5.96388C105.897 6.07588 106.123 6.23388 106.307 6.43788C106.491 6.64188 106.629 6.88588 106.721 7.16988C106.817 7.45388 106.865 7.76788 106.865 8.11188V11.9999H106.343C106.227 11.9999 106.139 11.9819 106.079 11.9459C106.019 11.9059 105.971 11.8339 105.935 11.7299L105.809 11.1959C105.653 11.3399 105.499 11.4679 105.347 11.5799C105.195 11.6879 105.035 11.7819 104.867 11.8619C104.703 11.9379 104.527 11.9959 104.339 12.0359C104.151 12.0759 103.943 12.0959 103.715 12.0959C103.475 12.0959 103.249 12.0639 103.037 11.9999C102.829 11.9319 102.647 11.8299 102.491 11.6939C102.335 11.5579 102.211 11.3879 102.119 11.1839C102.031 10.9799 101.987 10.7419 101.987 10.4699C101.987 10.2299 102.051 9.99988 102.179 9.77988C102.311 9.55588 102.523 9.35588 102.815 9.17988C103.111 9.00388 103.495 8.85988 103.967 8.74788C104.443 8.63588 105.027 8.57188 105.719 8.55588V8.11188C105.719 7.65188 105.621 7.30788 105.425 7.07988C105.229 6.85188 104.941 6.73788 104.561 6.73788C104.305 6.73788 104.089 6.76988 103.913 6.83388C103.741 6.89788 103.591 6.96988 103.463 7.04988C103.339 7.12588 103.229 7.19588 103.133 7.25988C103.041 7.32388 102.945 7.35588 102.845 7.35588C102.765 7.35588 102.695 7.33388 102.635 7.28988C102.579 7.24588 102.533 7.19388 102.497 7.13388L102.287 6.75588ZM112.026 6.95388C111.994 7.00588 111.96 7.04388 111.924 7.06788C111.888 7.08788 111.842 7.09788 111.786 7.09788C111.722 7.09788 111.65 7.07588 111.57 7.03188C111.494 6.98788 111.4 6.93988 111.288 6.88788C111.18 6.83588 111.052 6.78788 110.904 6.74388C110.756 6.69988 110.58 6.67788 110.376 6.67788C110.208 6.67788 110.054 6.69988 109.914 6.74388C109.778 6.78388 109.662 6.84188 109.566 6.91788C109.47 6.98988 109.396 7.07788 109.344 7.18188C109.292 7.28188 109.266 7.38988 109.266 7.50588C109.266 7.65788 109.31 7.78388 109.398 7.88388C109.49 7.98388 109.608 8.06988 109.752 8.14188C109.9 8.21388 110.066 8.27988 110.25 8.33988C110.438 8.39588 110.628 8.45588 110.82 8.51988C111.016 8.58388 111.206 8.65788 111.39 8.74188C111.578 8.82188 111.744 8.92388 111.888 9.04788C112.036 9.16788 112.154 9.31388 112.242 9.48588C112.334 9.65788 112.38 9.86788 112.38 10.1159C112.38 10.3999 112.328 10.6639 112.224 10.9079C112.124 11.1479 111.974 11.3559 111.774 11.5319C111.578 11.7079 111.334 11.8459 111.042 11.9459C110.75 12.0459 110.416 12.0959 110.04 12.0959C109.62 12.0959 109.232 12.0259 108.876 11.8859C108.52 11.7459 108.222 11.5679 107.982 11.3519L108.258 10.9019C108.29 10.8459 108.33 10.8039 108.378 10.7759C108.426 10.7439 108.49 10.7279 108.57 10.7279C108.646 10.7279 108.724 10.7559 108.804 10.8119C108.884 10.8679 108.98 10.9299 109.092 10.9979C109.204 11.0619 109.34 11.1219 109.5 11.1779C109.66 11.2299 109.86 11.2559 110.1 11.2559C110.3 11.2559 110.474 11.2319 110.622 11.1839C110.77 11.1319 110.892 11.0639 110.988 10.9799C111.088 10.8919 111.162 10.7919 111.21 10.6799C111.258 10.5679 111.282 10.4499 111.282 10.3259C111.282 10.1659 111.236 10.0339 111.144 9.92988C111.056 9.82188 110.938 9.72988 110.79 9.65388C110.646 9.57788 110.48 9.51188 110.292 9.45588C110.104 9.39988 109.912 9.33988 109.716 9.27588C109.52 9.21188 109.328 9.13788 109.14 9.05388C108.952 8.96988 108.784 8.86388 108.636 8.73588C108.492 8.60788 108.374 8.45188 108.282 8.26788C108.194 8.08388 108.15 7.85988 108.15 7.59588C108.15 7.35988 108.198 7.13388 108.294 6.91788C108.394 6.70188 108.536 6.51188 108.72 6.34788C108.908 6.18388 109.138 6.05388 109.41 5.95788C109.686 5.85788 110 5.80788 110.352 5.80788C110.756 5.80788 111.12 5.87188 111.444 5.99988C111.772 6.12788 112.052 6.30388 112.284 6.52788L112.026 6.95388ZM114.871 5.90388V12.3839C114.871 12.6359 114.837 12.8699 114.769 13.0859C114.705 13.3059 114.601 13.4959 114.457 13.6559C114.317 13.8199 114.133 13.9479 113.905 14.0399C113.681 14.1319 113.409 14.1779 113.089 14.1779C112.957 14.1779 112.837 14.1679 112.729 14.1479C112.617 14.1279 112.505 14.0999 112.393 14.0639L112.441 13.4279C112.457 13.3519 112.493 13.3099 112.549 13.3019C112.601 13.2939 112.703 13.2899 112.855 13.2899C113.163 13.2899 113.381 13.2199 113.509 13.0799C113.637 12.9399 113.701 12.7079 113.701 12.3839V5.90388H114.871ZM115.093 4.01988C115.093 4.12788 115.071 4.23188 115.027 4.33188C114.983 4.42788 114.923 4.51388 114.847 4.58988C114.771 4.66188 114.683 4.71988 114.583 4.76388C114.487 4.80388 114.383 4.82388 114.271 4.82388C114.163 4.82388 114.061 4.80388 113.965 4.76388C113.869 4.71988 113.783 4.66188 113.707 4.58988C113.635 4.51388 113.577 4.42788 113.533 4.33188C113.493 4.23188 113.473 4.12788 113.473 4.01988C113.473 3.90788 113.493 3.80388 113.533 3.70788C113.577 3.60788 113.635 3.52188 113.707 3.44988C113.783 3.37388 113.869 3.31588 113.965 3.27588C114.061 3.23188 114.163 3.20988 114.271 3.20988C114.383 3.20988 114.487 3.23188 114.583 3.27588C114.683 3.31588 114.771 3.37388 114.847 3.44988C114.923 3.52188 114.983 3.60788 115.027 3.70788C115.071 3.80388 115.093 3.90788 115.093 4.01988ZM117.789 5.90388V11.9999H116.619V5.90388H117.789ZM118.011 4.01988C118.011 4.12788 117.989 4.23188 117.945 4.33188C117.901 4.42788 117.841 4.51388 117.765 4.58988C117.693 4.66188 117.607 4.71988 117.507 4.76388C117.407 4.80388 117.303 4.82388 117.195 4.82388C117.087 4.82388 116.985 4.80388 116.889 4.76388C116.793 4.71988 116.707 4.66188 116.631 4.58988C116.559 4.51388 116.501 4.42788 116.457 4.33188C116.417 4.23188 116.397 4.12788 116.397 4.01988C116.397 3.90788 116.417 3.80388 116.457 3.70788C116.501 3.60788 116.559 3.52188 116.631 3.44988C116.707 3.37388 116.793 3.31588 116.889 3.27588C116.985 3.23188 117.087 3.20988 117.195 3.20988C117.303 3.20988 117.407 3.23188 117.507 3.27588C117.607 3.31588 117.693 3.37388 117.765 3.44988C117.841 3.52188 117.901 3.60788 117.945 3.70788C117.989 3.80388 118.011 3.90788 118.011 4.01988ZM123.413 7.37988C123.221 7.12788 123.013 6.95188 122.789 6.85188C122.569 6.75188 122.321 6.70188 122.045 6.70188C121.509 6.70188 121.093 6.89588 120.797 7.28388C120.505 7.66788 120.359 8.22988 120.359 8.96988C120.359 9.35788 120.391 9.68988 120.455 9.96588C120.523 10.2379 120.619 10.4619 120.743 10.6379C120.871 10.8099 121.027 10.9379 121.211 11.0219C121.395 11.1019 121.603 11.1419 121.835 11.1419C122.175 11.1419 122.469 11.0659 122.717 10.9139C122.965 10.7619 123.197 10.5479 123.413 10.2719V7.37988ZM124.589 3.14388V11.9999H123.881C123.717 11.9999 123.615 11.9219 123.575 11.7659L123.473 11.0639C123.213 11.3719 122.917 11.6199 122.585 11.8079C122.257 11.9919 121.877 12.0839 121.445 12.0839C121.097 12.0839 120.781 12.0159 120.497 11.8799C120.217 11.7439 119.977 11.5459 119.777 11.2859C119.577 11.0219 119.423 10.6959 119.315 10.3079C119.207 9.91988 119.153 9.47388 119.153 8.96988C119.153 8.51788 119.213 8.09788 119.333 7.70988C119.453 7.32188 119.627 6.98588 119.855 6.70188C120.083 6.41788 120.359 6.19588 120.683 6.03588C121.007 5.87188 121.373 5.78988 121.781 5.78988C122.149 5.78988 122.461 5.84988 122.717 5.96988C122.977 6.08988 123.209 6.25988 123.413 6.47988V3.14388H124.589ZM131.938 7.53588C132.266 7.53588 132.554 7.49588 132.802 7.41588C133.054 7.33588 133.264 7.22388 133.432 7.07988C133.6 6.93188 133.726 6.75788 133.81 6.55788C133.894 6.35388 133.936 6.12988 133.936 5.88588C133.936 5.38988 133.772 5.01588 133.444 4.76388C133.12 4.51188 132.632 4.38588 131.98 4.38588H130.774V7.53588H131.938ZM135.958 11.9999H134.818C134.59 11.9999 134.424 11.9099 134.32 11.7299L132.19 8.74188C132.122 8.64188 132.048 8.57188 131.968 8.53188C131.888 8.48788 131.768 8.46588 131.608 8.46588H130.774V11.9999H129.496V3.38388H131.98C132.536 3.38388 133.014 3.44188 133.414 3.55788C133.818 3.66988 134.15 3.83188 134.41 4.04388C134.674 4.25188 134.868 4.50388 134.992 4.79988C135.12 5.09588 135.184 5.42788 135.184 5.79588C135.184 6.09588 135.138 6.37788 135.046 6.64188C134.954 6.90588 134.818 7.14388 134.638 7.35588C134.462 7.56388 134.246 7.74388 133.99 7.89588C133.734 8.04788 133.444 8.16388 133.12 8.24388C133.28 8.33988 133.418 8.47388 133.534 8.64588L135.958 11.9999ZM140.009 9.29388C139.533 9.30988 139.129 9.34788 138.797 9.40788C138.465 9.46388 138.195 9.53988 137.987 9.63588C137.779 9.73188 137.629 9.84588 137.537 9.97788C137.445 10.1059 137.399 10.2499 137.399 10.4099C137.399 10.5619 137.423 10.6939 137.471 10.8059C137.523 10.9139 137.591 11.0039 137.675 11.0759C137.763 11.1439 137.865 11.1939 137.981 11.2259C138.097 11.2579 138.223 11.2739 138.359 11.2739C138.539 11.2739 138.703 11.2559 138.851 11.2199C139.003 11.1839 139.145 11.1339 139.277 11.0699C139.409 11.0019 139.535 10.9199 139.655 10.8239C139.775 10.7279 139.893 10.6179 140.009 10.4939V9.29388ZM136.577 6.75588C136.917 6.43188 137.285 6.18988 137.681 6.02988C138.081 5.86988 138.519 5.78988 138.995 5.78988C139.343 5.78988 139.651 5.84788 139.919 5.96388C140.187 6.07588 140.413 6.23388 140.597 6.43788C140.781 6.64188 140.919 6.88588 141.011 7.16988C141.107 7.45388 141.155 7.76788 141.155 8.11188V11.9999H140.633C140.517 11.9999 140.429 11.9819 140.369 11.9459C140.309 11.9059 140.261 11.8339 140.225 11.7299L140.099 11.1959C139.943 11.3399 139.789 11.4679 139.637 11.5799C139.485 11.6879 139.325 11.7819 139.157 11.8619C138.993 11.9379 138.817 11.9959 138.629 12.0359C138.441 12.0759 138.233 12.0959 138.005 12.0959C137.765 12.0959 137.539 12.0639 137.327 11.9999C137.119 11.9319 136.937 11.8299 136.781 11.6939C136.625 11.5579 136.501 11.3879 136.409 11.1839C136.321 10.9799 136.277 10.7419 136.277 10.4699C136.277 10.2299 136.341 9.99988 136.469 9.77988C136.601 9.55588 136.813 9.35588 137.105 9.17988C137.401 9.00388 137.785 8.85988 138.257 8.74788C138.733 8.63588 139.317 8.57188 140.009 8.55588V8.11188C140.009 7.65188 139.911 7.30788 139.715 7.07988C139.519 6.85188 139.231 6.73788 138.851 6.73788C138.595 6.73788 138.379 6.76988 138.203 6.83388C138.031 6.89788 137.881 6.96988 137.753 7.04988C137.629 7.12588 137.519 7.19588 137.423 7.25988C137.331 7.32388 137.235 7.35588 137.135 7.35588C137.055 7.35588 136.985 7.33388 136.925 7.28988C136.869 7.24588 136.823 7.19388 136.787 7.13388L136.577 6.75588ZM147.896 5.90388L144.512 13.7699C144.476 13.8579 144.428 13.9259 144.368 13.9739C144.308 14.0219 144.22 14.0459 144.104 14.0459H143.234L144.35 11.6159L141.848 5.90388H142.868C142.968 5.90388 143.046 5.92788 143.102 5.97588C143.158 6.02388 143.198 6.07788 143.222 6.13788L144.77 9.79788C144.802 9.88988 144.832 9.98388 144.86 10.0799C144.892 10.1719 144.918 10.2639 144.938 10.3559C144.966 10.2599 144.996 10.1659 145.028 10.0739C145.06 9.97788 145.094 9.88388 145.13 9.79188L146.624 6.13788C146.652 6.06988 146.696 6.01388 146.756 5.96988C146.816 5.92588 146.884 5.90388 146.96 5.90388H147.896ZM151.938 9.29388C151.462 9.30988 151.058 9.34788 150.726 9.40788C150.394 9.46388 150.124 9.53988 149.916 9.63588C149.708 9.73188 149.558 9.84588 149.466 9.97788C149.374 10.1059 149.328 10.2499 149.328 10.4099C149.328 10.5619 149.352 10.6939 149.4 10.8059C149.452 10.9139 149.52 11.0039 149.604 11.0759C149.692 11.1439 149.794 11.1939 149.91 11.2259C150.026 11.2579 150.152 11.2739 150.288 11.2739C150.468 11.2739 150.632 11.2559 150.78 11.2199C150.932 11.1839 151.074 11.1339 151.206 11.0699C151.338 11.0019 151.464 10.9199 151.584 10.8239C151.704 10.7279 151.822 10.6179 151.938 10.4939V9.29388ZM148.506 6.75588C148.846 6.43188 149.214 6.18988 149.61 6.02988C150.01 5.86988 150.448 5.78988 150.924 5.78988C151.272 5.78988 151.58 5.84788 151.848 5.96388C152.116 6.07588 152.342 6.23388 152.526 6.43788C152.71 6.64188 152.848 6.88588 152.94 7.16988C153.036 7.45388 153.084 7.76788 153.084 8.11188V11.9999H152.562C152.446 11.9999 152.358 11.9819 152.298 11.9459C152.238 11.9059 152.19 11.8339 152.154 11.7299L152.028 11.1959C151.872 11.3399 151.718 11.4679 151.566 11.5799C151.414 11.6879 151.254 11.7819 151.086 11.8619C150.922 11.9379 150.746 11.9959 150.558 12.0359C150.37 12.0759 150.162 12.0959 149.934 12.0959C149.694 12.0959 149.468 12.0639 149.256 11.9999C149.048 11.9319 148.866 11.8299 148.71 11.6939C148.554 11.5579 148.43 11.3879 148.338 11.1839C148.25 10.9799 148.206 10.7419 148.206 10.4699C148.206 10.2299 148.27 9.99988 148.398 9.77988C148.53 9.55588 148.742 9.35588 149.034 9.17988C149.33 9.00388 149.714 8.85988 150.186 8.74788C150.662 8.63588 151.246 8.57188 151.938 8.55588V8.11188C151.938 7.65188 151.84 7.30788 151.644 7.07988C151.448 6.85188 151.16 6.73788 150.78 6.73788C150.524 6.73788 150.308 6.76988 150.132 6.83388C149.96 6.89788 149.81 6.96988 149.682 7.04988C149.558 7.12588 149.448 7.19588 149.352 7.25988C149.26 7.32388 149.164 7.35588 149.064 7.35588C148.984 7.35588 148.914 7.33388 148.854 7.28988C148.798 7.24588 148.752 7.19388 148.716 7.13388L148.506 6.75588Z" fill="#1A4373"/>
<path d="M99.3421 41.6166H124.193C124.814 45.6506 128.404 48.0001 132.57 48.0001C136.821 48.0001 140.473 45.5525 140.982 41.3646H224.067V33.1563L224.083 32.0706C224.247 30.2317 225.665 29.1261 227.163 29.2128C228.727 29.2128 230.044 30.2857 230.014 32.3397V33.5026L234.276 32.2989C234.354 28.6401 232.604 25.8102 228.45 25.8102C226.675 25.8102 225.075 26.4379 224.083 27.8523V25.8557L219.775 27.9381L219.775 37.7266H216.196V29.9797L211.897 31.4136V33.4614C211.802 35.7692 210.854 37.4447 208.735 37.4447C206.459 37.4765 205.321 35.7058 205.321 33.3032C205.416 30.3951 206.965 29.0674 209.368 29.0674C209.917 29.0674 210.548 29.1171 211.179 29.2763V25.6174C210.694 25.5644 210.205 25.5336 209.715 25.5265C204.562 25.4317 201.053 28.1503 200.895 33.3032C200.895 34.9251 201.201 36.449 201.831 37.7266H196.614C197.274 36.5849 197.665 35.152 197.694 33.3955C197.788 27.9262 194.374 25.4606 191.118 25.4606C190.257 25.4606 189.529 25.5838 188.899 25.8472V29.3473C189.2 29.2265 189.538 29.1593 189.917 29.1593C192.161 29.1593 193.331 31.0559 193.236 33.4268C193.204 36.43 191.624 37.7266 189.348 37.7266C188.494 37.7266 187.672 37.5366 186.819 37.2524V27.6936V17.9999L182.488 20.0823V37.7266H178.215C178.875 36.5849 179.266 35.152 179.294 33.3955C179.39 27.9262 175.975 25.4606 172.719 25.4606C171.858 25.4606 171.13 25.5838 170.501 25.8472V29.3473C170.801 29.2265 171.139 29.1593 171.518 29.1593C173.762 29.1593 174.932 31.0559 174.837 33.4268C174.806 36.43 173.225 37.7266 170.949 37.7266C170.095 37.7266 169.273 37.5366 168.42 37.2524V27.6936V17.9999L164.089 20.0823V37.7266H159.568V29.9859L155.268 31.4193V33.4922C155.174 35.8 154.225 37.475 152.107 37.475C149.831 37.5068 148.693 35.7366 148.693 33.334C148.788 30.4255 150.337 29.0977 152.739 29.0977C153.293 29.0977 153.932 29.1484 154.569 29.3113V25.6501C154.077 25.5956 153.583 25.5639 153.087 25.5573C147.934 25.462 144.425 28.1811 144.267 33.334C144.267 34.9426 144.568 36.4556 145.188 37.7266H141.042V17.9999L136.301 20.2798V40.2547C136.301 42.5621 134.815 43.7956 132.57 43.7956C130.325 43.7956 128.84 42.5625 128.84 40.2547V37.8232H118.259C117.12 37.8232 116.637 36.5774 116.637 35.3571V17.9999L112.274 20.0922V35.3571C112.274 36.3036 112.359 37.1221 112.525 37.8232H107.754V26.8216C107.754 22.0258 103.88 19.1998 99.308 19.1713C94.7581 19.1434 90.8084 22.0329 90.8084 26.8216V40.2547C90.8084 42.5625 89.3229 43.7956 87.0781 43.7956C84.8337 43.7956 83.3477 42.5625 83.3477 40.2547V37.8232H78.606V40.3494C78.606 45.1551 82.4941 48.0001 87.0781 48.0001C91.662 48.0001 95.5506 45.1551 95.5506 40.3494V26.9163C95.5506 24.6298 97.0096 23.3872 99.2199 23.3764C101.486 23.365 103.011 24.5506 103.011 26.9163V37.8232H99.3421V41.6166ZM126.468 25.1527L130.4 29.0844L126.468 33.0156L122.537 29.0844L126.468 25.1527Z" fill="#022B55"/>
</svg>
